<?xml version="1.0" encoding="utf-8"?>
<!-- Generator: Adobe Illustrator 16.0.3, SVG Export Plug-In . SVG Version: 6.00 Build 0)  -->
<!DOCTYPE svg PUBLIC "-//W3C//DTD SVG 1.1//EN" "http://www.w3.org/Graphics/SVG/1.1/DTD/svg11.dtd">
<svg version="1.1" id="Layer_1" xmlns="http://www.w3.org/2000/svg" xmlns:xlink="http://www.w3.org/1999/xlink" x="0px" y="0px"
	 width="50px" height="50px" viewBox="0 0 50 50" enable-background="new 0 0 50 50" xml:space="preserve">
<path fill-rule="evenodd" clip-rule="evenodd" fill="#008AFF" d="M30.785,17.165c3.207,3.185,3.207,8.349,0,11.534l-1.345,1.336
	l-3.187-3.166l1.345-1.336c1.447-1.438,1.447-3.765,0-5.203c-1.438-1.428-3.801-1.428-5.239,0c-1.446,1.438-1.446,3.765,0.001,5.203
	l5.805,5.769l-3.187,3.166l-5.806-5.769c-3.206-3.185-3.207-8.349,0-11.535C22.363,13.994,27.594,13.994,30.785,17.165
	 M26.323,21.596c-0.734-0.729-1.954-0.729-2.688,0c-0.744,0.739-0.743,1.932,0,2.671l1.343,1.335l1.345-1.335
	C27.066,23.528,27.067,22.335,26.323,21.596 M50,25c0,13.808-11.193,25-25,25C11.194,50,0,38.807,0,25S11.194,0,25,0
	C38.807,0,50,11.192,50,25 M32.06,15.898c-3.895-3.869-10.268-3.869-14.163,0c-3.91,3.884-3.91,10.184,0,14.068
	c2.361,2.345,4.721,4.689,7.081,7.033c2.361-2.345,4.722-4.688,7.082-7.033C35.97,26.082,35.97,19.782,32.06,15.898"/>
<rect x="-84.375" y="-75" fill="none" width="300" height="200"/>
</svg>
