<?xml version="1.0" encoding="utf-8"?>
<!-- Generator: Adobe Illustrator 16.0.3, SVG Export Plug-In . SVG Version: 6.00 Build 0)  -->
<!DOCTYPE svg PUBLIC "-//W3C//DTD SVG 1.1//EN" "http://www.w3.org/Graphics/SVG/1.1/DTD/svg11.dtd">
<svg version="1.1" id="Layer_1" xmlns="http://www.w3.org/2000/svg" xmlns:xlink="http://www.w3.org/1999/xlink" x="0px" y="0px"
	 width="133.634px" height="50px" viewBox="0 0 133.634 50" enable-background="new 0 0 133.634 50" xml:space="preserve">
<path d="M78.399,23.103c0,0.638-0.122,1.175-0.364,1.61c-0.244,0.434-0.566,0.783-0.97,1.047c-0.401,0.265-0.86,0.454-1.373,0.57
	c-0.514,0.115-1.041,0.173-1.581,0.173h-4.478V14.817h4.478c0.435,0,0.879,0.047,1.335,0.141c0.454,0.093,0.867,0.253,1.238,0.478
	c0.371,0.226,0.672,0.531,0.905,0.916c0.232,0.386,0.35,0.875,0.35,1.469c0,0.649-0.17,1.186-0.508,1.609
	c-0.339,0.424-0.785,0.729-1.335,0.917v0.033c0.318,0.055,0.616,0.156,0.898,0.305c0.279,0.149,0.523,0.338,0.73,0.57
	c0.206,0.23,0.37,0.5,0.492,0.808C78.339,22.371,78.399,22.718,78.399,23.103 M75.319,18.201c0-0.397-0.146-0.685-0.438-0.867
	c-0.291-0.181-0.722-0.272-1.294-0.272h-1.334v2.41h1.461c0.509,0,0.903-0.108,1.183-0.322
	C75.179,18.935,75.319,18.619,75.319,18.201 M75.684,22.839c0-0.484-0.174-0.82-0.522-1.007c-0.351-0.187-0.816-0.28-1.398-0.28
	h-1.509v2.673h1.523c0.213,0,0.433-0.019,0.659-0.057c0.229-0.039,0.436-0.108,0.62-0.206c0.185-0.1,0.336-0.24,0.453-0.422
	C75.626,23.359,75.684,23.125,75.684,22.839"/>
<path d="M88.611,26.503l-0.874-2.294h-4.352l-0.826,2.294h-2.953l4.717-11.686h2.636l4.669,11.686H88.611z M85.593,17.937
	l-1.429,4.011h2.827L85.593,17.937z"/>
<polygon points="97.218,17.227 97.218,26.503 94.503,26.503 94.503,17.227 91.326,17.227 91.326,14.817 100.394,14.817 
	100.394,17.227 "/>
<path d="M111.615,24.019c-0.229,0.578-0.555,1.073-0.977,1.486c-0.424,0.413-0.936,0.735-1.533,0.965
	c-0.598,0.232-1.262,0.347-1.992,0.347c-0.741,0-1.408-0.115-2.001-0.347c-0.594-0.23-1.098-0.552-1.51-0.965
	c-0.413-0.413-0.729-0.908-0.953-1.486c-0.222-0.577-0.332-1.218-0.332-1.922v-7.28h2.699v7.048c0,0.32,0.039,0.622,0.119,0.908
	c0.079,0.287,0.201,0.542,0.365,0.767c0.164,0.227,0.382,0.405,0.651,0.537c0.271,0.132,0.595,0.198,0.977,0.198
	c0.381,0,0.707-0.066,0.976-0.198c0.271-0.132,0.489-0.31,0.659-0.537c0.17-0.225,0.292-0.48,0.366-0.767
	c0.073-0.286,0.111-0.588,0.111-0.908v-7.048h2.715v7.28C111.956,22.801,111.843,23.442,111.615,24.019"/>
<polygon points="125.138,26.503 125.2,18.233 125.153,18.233 122.23,26.503 120.325,26.503 117.482,18.233 117.435,18.233 
	117.498,26.503 114.941,26.503 114.941,14.817 118.806,14.817 121.365,22.311 121.43,22.311 123.877,14.817 127.805,14.817 
	127.805,26.503 "/>
<rect x="130.902" y="14.817" width="2.731" height="11.686"/>
<path fill="#0A57A4" d="M75.43,32.58c-0.218-0.251-0.494-0.452-0.829-0.603c-0.336-0.149-0.711-0.225-1.124-0.225
	c-0.421,0-0.8,0.081-1.138,0.242c-0.34,0.161-0.628,0.381-0.866,0.662c-0.237,0.279-0.419,0.604-0.548,0.972
	c-0.129,0.369-0.193,0.763-0.193,1.179c0,0.423,0.064,0.82,0.193,1.192c0.129,0.373,0.311,0.698,0.548,0.975
	c0.238,0.274,0.53,0.491,0.875,0.649c0.346,0.158,0.732,0.237,1.159,0.237c0.34,0,0.652-0.033,0.937-0.097
	c0.284-0.064,0.531-0.158,0.741-0.28v-2.118h-1.596v-0.903h2.593v3.688c-0.38,0.215-0.793,0.38-1.241,0.494
	c-0.446,0.115-0.935,0.173-1.464,0.173c-0.563,0-1.079-0.099-1.55-0.296s-0.876-0.474-1.216-0.828
	c-0.339-0.355-0.604-0.778-0.792-1.27c-0.19-0.489-0.285-1.03-0.285-1.617c0-0.596,0.096-1.139,0.29-1.629
	c0.192-0.491,0.46-0.911,0.803-1.258c0.342-0.348,0.746-0.619,1.214-0.812c0.47-0.194,0.978-0.29,1.526-0.29
	c0.577,0,1.09,0.089,1.541,0.269c0.451,0.179,0.825,0.419,1.123,0.72L75.43,32.58z"/>
<path fill="#0A57A4" d="M80.961,38.817c-0.475,0-0.889-0.084-1.24-0.253c-0.354-0.168-0.645-0.394-0.874-0.672
	c-0.231-0.28-0.402-0.601-0.514-0.964c-0.112-0.36-0.168-0.735-0.168-1.123V31.01h1.007v4.731c0,0.259,0.03,0.515,0.091,0.769
	c0.062,0.255,0.161,0.482,0.3,0.684s0.323,0.361,0.549,0.483c0.228,0.122,0.512,0.184,0.85,0.184c0.333,0,0.613-0.062,0.844-0.184
	s0.415-0.282,0.554-0.483c0.141-0.201,0.24-0.429,0.301-0.684c0.062-0.254,0.093-0.51,0.093-0.769V31.01h1.005v4.795
	c0,0.388-0.056,0.763-0.167,1.123c-0.111,0.363-0.283,0.684-0.515,0.964c-0.229,0.278-0.521,0.504-0.873,0.672
	C81.85,38.733,81.436,38.817,80.961,38.817"/>
<rect x="85.761" y="31.01" fill="#0A57A4" width="1.006" height="7.613"/>
<path fill="#0A57A4" d="M88.821,31.011h2.471c0.461,0,0.921,0.072,1.383,0.215s0.879,0.369,1.25,0.677
	c0.373,0.308,0.675,0.702,0.905,1.183c0.23,0.479,0.348,1.058,0.348,1.73c0,0.653-0.117,1.218-0.348,1.694s-0.532,0.871-0.905,1.182
	c-0.371,0.313-0.788,0.545-1.25,0.7c-0.462,0.153-0.922,0.231-1.383,0.231h-2.471V31.011z M89.827,37.688h1.261
	c0.435,0,0.835-0.063,1.206-0.192c0.369-0.13,0.688-0.316,0.955-0.56c0.269-0.244,0.478-0.545,0.626-0.904
	c0.149-0.357,0.224-0.763,0.224-1.215c0-0.473-0.074-0.889-0.224-1.247c-0.148-0.358-0.357-0.657-0.626-0.897
	c-0.268-0.24-0.586-0.423-0.955-0.548c-0.371-0.126-0.771-0.189-1.206-0.189h-1.261V37.688z"/>
<polygon fill="#0A57A4" points="97.871,37.678 101.634,37.678 101.634,38.623 96.864,38.623 96.864,31.011 101.481,31.011 
	101.481,31.946 97.871,31.946 97.871,34.226 101.268,34.226 101.268,35.14 97.871,35.14 "/>
<path fill-rule="evenodd" clip-rule="evenodd" fill="#0A57A4" d="M30.785,17.165c3.207,3.185,3.207,8.349,0,11.534l-1.345,1.336
	l-3.187-3.166l1.344-1.336c1.448-1.438,1.448-3.765,0.001-5.203c-1.438-1.428-3.801-1.428-5.239,0
	c-1.446,1.438-1.446,3.765,0.001,5.203l5.805,5.768l-3.187,3.166l-5.806-5.768c-3.206-3.185-3.207-8.349-0.001-11.535
	C22.363,13.994,27.593,13.994,30.785,17.165 M26.322,21.596c-0.734-0.729-1.954-0.729-2.688,0c-0.744,0.739-0.743,1.932,0,2.671
	l1.344,1.335l1.344-1.335C27.066,23.528,27.067,22.335,26.322,21.596 M50,25c0,13.808-11.193,25-25,25C11.193,50,0,38.808,0,25
	S11.193,0,25,0C38.807,0,50,11.192,50,25 M32.06,15.898c-3.895-3.869-10.269-3.869-14.163,0c-3.91,3.884-3.91,10.184,0,14.068
	c2.361,2.345,4.721,4.69,7.081,7.034c2.361-2.345,4.721-4.688,7.082-7.034C35.97,26.082,35.97,19.782,32.06,15.898"/>
<rect x="-64.142" y="-40.284" fill="none" width="252.283" height="144.567"/>
</svg>
