<?xml version="1.0" encoding="utf-8"?>
<!-- Generator: Adobe Illustrator 16.0.3, SVG Export Plug-In . SVG Version: 6.00 Build 0)  -->
<!DOCTYPE svg PUBLIC "-//W3C//DTD SVG 1.1//EN" "http://www.w3.org/Graphics/SVG/1.1/DTD/svg11.dtd">
<svg version="1.1" id="Layer_1" xmlns="http://www.w3.org/2000/svg" xmlns:xlink="http://www.w3.org/1999/xlink" x="0px" y="0px"
	 width="131.25px" height="50px" viewBox="0 0 131.25 50" enable-background="new 0 0 131.25 50" xml:space="preserve">
<path fill-rule="evenodd" clip-rule="evenodd" fill="#008AFF" d="M30.785,17.165c3.207,3.185,3.207,8.349,0,11.534l-1.345,1.336
	l-3.187-3.166l1.345-1.336c1.447-1.438,1.447-3.765,0-5.203c-1.438-1.428-3.801-1.428-5.239,0c-1.446,1.438-1.446,3.765,0.001,5.203
	l5.805,5.769l-3.187,3.166l-5.806-5.769c-3.206-3.185-3.207-8.349,0-11.535C22.363,13.994,27.594,13.994,30.785,17.165
	 M26.323,21.596c-0.734-0.729-1.954-0.729-2.688,0c-0.744,0.739-0.743,1.932,0,2.671l1.343,1.335l1.345-1.335
	C27.066,23.528,27.067,22.335,26.323,21.596 M50,25c0,13.808-11.193,25-25,25C11.194,50,0,38.807,0,25S11.194,0,25,0
	C38.807,0,50,11.192,50,25 M32.06,15.898c-3.895-3.869-10.268-3.869-14.163,0c-3.91,3.884-3.91,10.184,0,14.068
	c2.361,2.345,4.721,4.689,7.081,7.033c2.361-2.345,4.722-4.688,7.082-7.033C35.97,26.082,35.97,19.782,32.06,15.898"/>
<path fill="#231F20" d="M71.868,15.208c-0.217,0-0.431-0.021-0.642-0.065c-0.212-0.043-0.397-0.116-0.561-0.219
	c-0.162-0.103-0.295-0.246-0.397-0.43s-0.154-0.423-0.154-0.715V13h2.209v0.146c0,0.184,0.043,0.314,0.13,0.389
	c0.086,0.076,0.231,0.114,0.438,0.114h2.111v0.91v2.256c0.682,0.25,1.231,0.702,1.648,1.356c0.417,0.655,0.625,1.524,0.625,2.607
	c0,0.66-0.095,1.25-0.284,1.77c-0.19,0.519-0.447,0.96-0.771,1.323c-0.325,0.363-0.706,0.642-1.145,0.837
	C74.636,24.902,74.163,25,73.654,25c-0.51,0-0.985-0.084-1.429-0.252c-0.444-0.168-0.831-0.428-1.161-0.78
	c-0.33-0.351-0.591-0.793-0.779-1.323C70.095,22.115,70,21.492,70,20.778c0-0.779,0.095-1.419,0.285-1.917
	c0.188-0.497,0.427-0.895,0.714-1.193c0.287-0.297,0.601-0.517,0.942-0.658c0.341-0.14,0.668-0.243,0.981-0.308v-1.494H71.868z
	 M75.083,20.875c0-0.465-0.032-0.853-0.097-1.161c-0.065-0.308-0.16-0.555-0.285-0.739c-0.124-0.183-0.273-0.313-0.446-0.39
	c-0.173-0.075-0.374-0.113-0.601-0.113c-0.195,0-0.381,0.032-0.561,0.097c-0.179,0.065-0.336,0.184-0.471,0.357
	c-0.136,0.174-0.241,0.417-0.316,0.731c-0.076,0.314-0.113,0.72-0.113,1.218c0,0.866,0.143,1.483,0.43,1.851s0.63,0.552,1.031,0.552
	c0.4,0,0.738-0.184,1.015-0.552S75.083,21.741,75.083,20.875"/>
<path fill="#231F20" d="M83.916,19.527c0-0.271-0.072-0.525-0.219-0.763c-0.146-0.238-0.328-0.479-0.544-0.723
	c-0.217-0.243-0.45-0.49-0.698-0.739c-0.25-0.249-0.481-0.519-0.698-0.812c-0.217-0.292-0.398-0.609-0.544-0.949
	c-0.146-0.342-0.22-0.723-0.22-1.145v-1.072h2.208v0.91c0,0.238,0.073,0.481,0.221,0.73c0.146,0.249,0.326,0.503,0.544,0.763
	c0.216,0.26,0.45,0.528,0.706,0.804c0.254,0.276,0.489,0.568,0.706,0.877c0.217,0.308,0.397,0.636,0.544,0.982
	c0.146,0.347,0.22,0.709,0.22,1.088v1.786c0,0.66-0.102,1.226-0.301,1.698c-0.2,0.47-0.463,0.857-0.788,1.161
	c-0.324,0.302-0.695,0.525-1.112,0.665C83.523,24.928,83.1,25,82.666,25c-0.509,0-0.979-0.081-1.412-0.243
	c-0.434-0.163-0.81-0.404-1.13-0.723c-0.318-0.319-0.57-0.714-0.754-1.185c-0.185-0.471-0.276-1.015-0.276-1.633
	c0-0.378,0.044-0.8,0.13-1.266c0.087-0.465,0.232-0.952,0.438-1.461l2.127,0.601c-0.151,0.292-0.268,0.627-0.35,1.006
	c-0.081,0.379-0.121,0.753-0.121,1.12c0,0.271,0.024,0.531,0.073,0.78c0.048,0.249,0.13,0.469,0.243,0.657
	c0.113,0.19,0.26,0.342,0.438,0.456c0.18,0.113,0.398,0.17,0.657,0.17c0.304,0,0.577-0.149,0.821-0.446
	c0.243-0.298,0.364-0.777,0.364-1.438V19.527z"/>
<path fill="#231F20" d="M91.646,13.064c0.228,0,0.468,0.016,0.723,0.049c0.254,0.032,0.504,0.1,0.747,0.203s0.474,0.249,0.689,0.438
	c0.217,0.19,0.391,0.436,0.52,0.739c0.229-0.519,0.563-0.888,1.008-1.104c0.443-0.217,0.946-0.325,1.51-0.325
	c1.147,0,2,0.36,2.558,1.079c0.558,0.721,0.836,1.698,0.836,2.932v0.877c0,0.649-0.016,1.255-0.049,1.818
	c-0.032,0.563-0.095,1.116-0.187,1.657c-0.093,0.541-0.22,1.085-0.381,1.631c-0.163,0.547-0.38,1.129-0.649,1.746h-2.274
	c0.206-0.39,0.391-0.782,0.553-1.177s0.301-0.839,0.414-1.332c0.113-0.492,0.202-1.06,0.268-1.705
	c0.065-0.644,0.097-1.409,0.097-2.297c0-0.618-0.013-1.148-0.04-1.592c-0.026-0.443-0.087-0.806-0.179-1.088
	c-0.092-0.281-0.222-0.489-0.389-0.625c-0.168-0.135-0.388-0.203-0.658-0.203c-0.195,0-0.368,0.027-0.521,0.081
	c-0.15,0.055-0.28,0.157-0.39,0.309c-0.107,0.152-0.192,0.36-0.251,0.625c-0.06,0.265-0.089,0.609-0.089,1.031v3.914
	c0,0.714-0.095,1.336-0.284,1.867c-0.189,0.53-0.45,0.974-0.78,1.332c-0.331,0.357-0.717,0.622-1.16,0.795
	c-0.444,0.173-0.921,0.26-1.43,0.26s-0.984-0.097-1.429-0.292c-0.444-0.195-0.828-0.477-1.153-0.844
	c-0.325-0.368-0.582-0.815-0.771-1.341c-0.19-0.525-0.284-1.117-0.284-1.777v-3.719c0-0.66,0.089-1.237,0.268-1.729
	c0.179-0.493,0.421-0.904,0.731-1.235c0.308-0.33,0.67-0.578,1.087-0.746C90.723,13.148,91.169,13.064,91.646,13.064 M90.428,21.038
	c0,0.368,0.041,0.692,0.122,0.974c0.081,0.282,0.192,0.514,0.333,0.698c0.14,0.184,0.297,0.325,0.471,0.423
	c0.173,0.097,0.352,0.146,0.535,0.146c0.358,0,0.683-0.184,0.975-0.553c0.292-0.367,0.438-0.931,0.438-1.688v-4.189
	c0-0.412-0.04-0.75-0.122-1.016c-0.081-0.265-0.186-0.476-0.316-0.633c-0.13-0.157-0.281-0.265-0.455-0.325
	c-0.173-0.059-0.346-0.089-0.52-0.089c-0.184,0-0.362,0.033-0.535,0.098c-0.174,0.065-0.331,0.173-0.471,0.324
	c-0.141,0.152-0.252,0.363-0.333,0.634s-0.122,0.606-0.122,1.007V21.038z"/>
<path fill="#231F20" d="M105.236,17.546v-1.624c0-0.432-0.138-0.732-0.413-0.9c-0.276-0.168-0.594-0.252-0.95-0.252
	c-0.228,0-0.454,0.029-0.683,0.089c-0.227,0.06-0.433,0.133-0.616,0.219V13.34c0.249-0.086,0.512-0.153,0.787-0.202
	c0.276-0.049,0.555-0.073,0.837-0.073c0.399,0,0.787,0.064,1.16,0.194c0.374,0.13,0.701,0.357,0.982,0.683
	c0.25-0.282,0.549-0.499,0.901-0.65c0.352-0.152,0.712-0.227,1.08-0.227c0.964,0,1.722,0.265,2.273,0.795
	c0.552,0.531,0.828,1.37,0.828,2.517v5.018c0,0.628-0.106,1.169-0.317,1.624c-0.211,0.454-0.489,0.828-0.836,1.12
	c-0.347,0.292-0.747,0.509-1.201,0.65c-0.454,0.14-0.932,0.21-1.43,0.21c-0.508,0-0.988-0.073-1.437-0.22
	c-0.449-0.146-0.848-0.373-1.193-0.682c-0.347-0.308-0.62-0.7-0.82-1.177c-0.2-0.476-0.301-1.05-0.301-1.721
	c0-0.314,0.038-0.644,0.114-0.99c0.076-0.347,0.168-0.677,0.275-0.991l2.063,0.698c-0.086,0.282-0.151,0.574-0.195,0.877
	c-0.043,0.303-0.064,0.563-0.064,0.779c0,0.228,0.033,0.444,0.098,0.65c0.065,0.206,0.162,0.387,0.292,0.544
	c0.13,0.157,0.293,0.281,0.488,0.374c0.194,0.092,0.422,0.137,0.681,0.137c0.411,0,0.772-0.14,1.08-0.422
	c0.309-0.281,0.474-0.779,0.496-1.494v-5.358c0-0.368-0.074-0.666-0.22-0.894c-0.146-0.227-0.371-0.34-0.674-0.34
	c-0.304,0-0.525,0.103-0.666,0.308c-0.141,0.206-0.212,0.493-0.212,0.861v1.607H105.236z"/>
<path fill="#231F20" d="M121.036,20.924c0,0.714-0.098,1.329-0.292,1.843c-0.194,0.514-0.457,0.936-0.787,1.266
	c-0.331,0.331-0.718,0.575-1.161,0.731c-0.444,0.157-0.915,0.236-1.413,0.236c-0.509,0-0.985-0.103-1.429-0.309
	c-0.444-0.205-0.831-0.498-1.161-0.876c-0.33-0.38-0.59-0.837-0.78-1.373c-0.188-0.536-0.284-1.134-0.284-1.794
	c0-0.682,0.087-1.28,0.261-1.794c0.173-0.515,0.413-0.94,0.723-1.275c0.309-0.336,0.671-0.587,1.088-0.755
	c0.416-0.168,0.869-0.252,1.354-0.252c0.325,0,0.637,0.049,0.936,0.146c0.297,0.098,0.57,0.255,0.819,0.471V16.15
	c0-0.249-0.046-0.457-0.139-0.625c-0.092-0.168-0.211-0.306-0.356-0.415c-0.146-0.107-0.314-0.183-0.503-0.227
	c-0.19-0.043-0.388-0.064-0.594-0.064c-0.336,0-0.726,0.067-1.169,0.203c-0.443,0.135-0.872,0.289-1.282,0.462l-0.342-1.737
	c0.466-0.249,0.947-0.428,1.445-0.536s0.975-0.163,1.429-0.163c0.466,0,0.918,0.058,1.356,0.171c0.438,0.114,0.828,0.298,1.17,0.552
	c0.34,0.255,0.611,0.582,0.811,0.983c0.201,0.4,0.301,0.887,0.301,1.461V20.924z M117.383,18.277c-0.25,0-0.462,0.068-0.642,0.203
	c-0.179,0.135-0.327,0.317-0.446,0.544s-0.209,0.485-0.269,0.772c-0.06,0.286-0.089,0.582-0.089,0.884
	c0,0.325,0.029,0.642,0.089,0.951c0.06,0.308,0.151,0.584,0.276,0.827c0.124,0.244,0.276,0.442,0.455,0.593
	c0.179,0.152,0.381,0.227,0.609,0.227c0.486,0,0.852-0.23,1.096-0.69c0.243-0.46,0.365-1.063,0.365-1.81
	c0-0.866-0.119-1.5-0.357-1.9S117.87,18.277,117.383,18.277"/>
<path fill="#231F20" d="M127.482,13.048c0.672,0,1.244,0.127,1.722,0.381c0.476,0.255,0.866,0.596,1.169,1.023
	c0.303,0.428,0.524,0.916,0.666,1.462c0.141,0.547,0.211,1.112,0.211,1.696c0,0.813-0.038,1.568-0.114,2.266
	c-0.076,0.698-0.17,1.343-0.284,1.932c-0.112,0.591-0.237,1.135-0.373,1.632c-0.136,0.498-0.268,0.953-0.397,1.364h-2.046
	c0.13-0.379,0.257-0.787,0.382-1.226c0.124-0.438,0.231-0.942,0.324-1.51c0.092-0.568,0.168-1.217,0.228-1.948
	s0.089-1.584,0.089-2.558c0-0.346-0.029-0.687-0.089-1.023c-0.06-0.335-0.16-0.633-0.301-0.893c-0.141-0.26-0.322-0.468-0.544-0.625
	c-0.222-0.157-0.501-0.236-0.836-0.236c-0.325,0-0.599,0.079-0.82,0.236c-0.222,0.157-0.397,0.365-0.528,0.625
	c-0.13,0.26-0.225,0.558-0.283,0.893c-0.061,0.336-0.09,0.677-0.09,1.023c0,0.986,0.029,1.843,0.09,2.574
	c0.059,0.731,0.135,1.38,0.227,1.949c0.092,0.567,0.201,1.068,0.325,1.502c0.125,0.433,0.252,0.838,0.381,1.217h-2.045
	c-0.314-0.822-0.588-1.818-0.82-2.987s-0.349-2.571-0.349-4.207c0-0.584,0.07-1.149,0.211-1.696c0.14-0.546,0.362-1.034,0.666-1.462
	c0.302-0.427,0.688-0.768,1.16-1.023c0.471-0.254,1.042-0.381,1.714-0.381H127.482z"/>
<path fill="#008AFF" d="M72.297,29.793c-0.123,0-0.244,0.017-0.364,0.049c-0.12,0.033-0.226,0.084-0.316,0.153
	s-0.165,0.162-0.223,0.277c-0.058,0.116-0.087,0.258-0.087,0.425v0.305h-1.001V30.85c0-0.312,0.055-0.584,0.168-0.816
	s0.261-0.424,0.446-0.576c0.186-0.153,0.396-0.268,0.632-0.344C71.787,29.038,72.024,29,72.265,29c0.341,0,0.633,0.04,0.876,0.12
	s0.444,0.188,0.604,0.326c0.16,0.138,0.276,0.3,0.349,0.484c0.072,0.186,0.108,0.383,0.108,0.594v0.675l-0.218,0.751
	c0.313,0.167,0.563,0.348,0.751,0.544c0.189,0.196,0.336,0.398,0.441,0.609c0.104,0.211,0.176,0.425,0.212,0.643
	c0.037,0.217,0.055,0.435,0.055,0.652c0,0.393-0.06,0.748-0.18,1.066c-0.119,0.32-0.296,0.594-0.528,0.822
	c-0.231,0.229-0.517,0.405-0.854,0.528S73.156,37,72.722,37c-0.399,0-0.767-0.063-1.1-0.19c-0.334-0.127-0.62-0.309-0.859-0.545
	c-0.24-0.234-0.427-0.517-0.562-0.843C70.067,35.094,70,34.736,70,34.343c0-0.391,0.069-0.747,0.207-1.066
	c0.138-0.318,0.328-0.589,0.571-0.811c0.243-0.221,0.534-0.392,0.871-0.512s0.706-0.18,1.104-0.18h0.283l0.163-0.707v-0.359
	c0-0.174-0.023-0.321-0.07-0.441c-0.048-0.119-0.113-0.214-0.196-0.282c-0.083-0.069-0.18-0.118-0.288-0.147
	C72.536,29.809,72.42,29.793,72.297,29.793 M71.002,34.355c0,0.565,0.159,1.012,0.479,1.339s0.751,0.489,1.295,0.489
	s0.958-0.162,1.241-0.489s0.424-0.773,0.424-1.339c0-0.573-0.141-1.013-0.424-1.317s-0.697-0.457-1.241-0.457
	s-0.976,0.152-1.295,0.457S71.002,33.782,71.002,34.355"/>
<path fill="#008AFF" d="M80.493,34.561v-1.284c0-0.21-0.054-0.406-0.158-0.587c-0.105-0.182-0.239-0.361-0.403-0.539
	c-0.163-0.178-0.337-0.357-0.521-0.539c-0.186-0.182-0.359-0.375-0.522-0.582c-0.164-0.207-0.298-0.432-0.403-0.675
	c-0.104-0.243-0.157-0.514-0.157-0.812v-0.414h1.001v0.295c0,0.203,0.055,0.399,0.164,0.587c0.108,0.189,0.244,0.38,0.407,0.572
	s0.341,0.388,0.533,0.587c0.192,0.2,0.37,0.407,0.534,0.621c0.163,0.214,0.299,0.441,0.408,0.68
	c0.108,0.239,0.163,0.497,0.163,0.773v1.186c0,0.437-0.069,0.813-0.207,1.133c-0.139,0.319-0.319,0.586-0.544,0.8
	c-0.226,0.214-0.481,0.374-0.769,0.479C79.732,36.947,79.437,37,79.133,37c-0.284,0-0.563-0.053-0.838-0.158
	c-0.276-0.104-0.523-0.261-0.74-0.468c-0.218-0.207-0.393-0.466-0.523-0.778c-0.131-0.312-0.195-0.671-0.195-1.077
	c0-0.305,0.038-0.599,0.113-0.882c0.076-0.283,0.188-0.592,0.332-0.926l0.938,0.273c-0.102,0.231-0.182,0.485-0.24,0.762
	c-0.058,0.275-0.088,0.565-0.088,0.87c0,0.247,0.037,0.461,0.109,0.643s0.169,0.333,0.289,0.457
	c0.119,0.123,0.256,0.216,0.407,0.277c0.152,0.062,0.309,0.092,0.469,0.092c0.152,0,0.307-0.026,0.463-0.081
	c0.155-0.054,0.297-0.141,0.424-0.261s0.233-0.276,0.316-0.468C80.451,35.083,80.493,34.844,80.493,34.561"/>
<path fill="#008AFF" d="M83.019,32.341c0-0.573,0.073-1.07,0.223-1.491c0.148-0.421,0.343-0.769,0.582-1.045
	c0.239-0.275,0.512-0.479,0.816-0.61C84.944,29.065,85.252,29,85.564,29h0.076c0.313,0,0.62,0.065,0.926,0.195
	c0.305,0.132,0.577,0.335,0.815,0.61c0.24,0.276,0.435,0.624,0.583,1.045s0.223,0.918,0.223,1.491c0,0.421-0.023,0.849-0.07,1.284
	c-0.047,0.435-0.104,0.854-0.169,1.257c-0.065,0.403-0.132,0.775-0.201,1.116s-0.125,0.631-0.169,0.871h-1.045
	c0.029-0.109,0.078-0.318,0.146-0.626c0.069-0.309,0.141-0.67,0.214-1.083c0.071-0.414,0.136-0.86,0.189-1.339
	c0.055-0.479,0.082-0.943,0.082-1.394c0-0.464-0.046-0.862-0.136-1.192c-0.091-0.329-0.209-0.601-0.354-0.811
	c-0.145-0.21-0.309-0.366-0.489-0.468c-0.182-0.102-0.366-0.152-0.556-0.152c-0.211,0-0.412,0.051-0.604,0.152
	c-0.193,0.102-0.361,0.258-0.506,0.468c-0.146,0.21-0.263,0.481-0.35,0.811c-0.087,0.33-0.13,0.729-0.13,1.192
	c0,0.45,0.027,0.914,0.081,1.394c0.055,0.479,0.116,0.925,0.186,1.339c0.068,0.413,0.138,0.774,0.206,1.083
	c0.069,0.308,0.118,0.517,0.147,0.626h-1.045c-0.043-0.24-0.098-0.53-0.163-0.871s-0.13-0.713-0.196-1.116
	c-0.064-0.402-0.121-0.822-0.169-1.257C83.041,33.19,83.019,32.762,83.019,32.341"/>
<path fill="#008AFF" d="M94.827,36.87c-0.951,0-1.754-0.148-2.411-0.441c-0.657-0.294-1.188-0.681-1.595-1.159
	c-0.406-0.479-0.7-1.021-0.881-1.628c-0.182-0.605-0.272-1.22-0.272-1.844c0-0.377,0.047-0.735,0.142-1.073
	c0.095-0.337,0.237-0.633,0.43-0.886c0.192-0.254,0.43-0.458,0.713-0.61S91.565,29,91.943,29c0.173,0,0.346,0.023,0.516,0.07
	c0.171,0.048,0.329,0.116,0.475,0.207c0.145,0.092,0.273,0.207,0.387,0.349c0.112,0.141,0.201,0.307,0.266,0.495
	c0.065-0.188,0.163-0.354,0.294-0.495c0.131-0.142,0.277-0.257,0.441-0.349c0.163-0.091,0.337-0.159,0.521-0.207
	c0.186-0.047,0.368-0.07,0.551-0.07c0.348,0,0.664,0.058,0.946,0.174c0.283,0.116,0.526,0.296,0.729,0.539s0.361,0.554,0.473,0.931
	c0.113,0.377,0.169,0.823,0.169,1.339c0,0.429-0.06,0.813-0.179,1.153c-0.12,0.341-0.285,0.63-0.496,0.866
	c-0.21,0.234-0.457,0.415-0.74,0.538c-0.282,0.124-0.584,0.185-0.902,0.185c-0.319,0-0.622-0.058-0.909-0.174
	c-0.286-0.116-0.537-0.288-0.751-0.517c-0.214-0.229-0.383-0.514-0.506-0.854c-0.124-0.341-0.186-0.74-0.186-1.197v-0.609
	c0-0.58-0.098-0.987-0.294-1.22c-0.196-0.231-0.472-0.348-0.827-0.348c-0.211,0-0.394,0.058-0.55,0.174
	c-0.156,0.115-0.285,0.269-0.386,0.456c-0.103,0.188-0.178,0.404-0.229,0.647c-0.051,0.242-0.075,0.494-0.075,0.755
	c0,0.506,0.07,1.01,0.212,1.51c0.141,0.5,0.376,0.949,0.701,1.347c0.327,0.398,0.756,0.724,1.285,0.974s1.179,0.374,1.948,0.374
	h0.903v0.828H94.827z M96.699,31.965c0-0.313-0.029-0.601-0.087-0.869c-0.06-0.267-0.144-0.495-0.256-0.683
	c-0.113-0.188-0.25-0.337-0.413-0.445c-0.164-0.109-0.348-0.163-0.55-0.163c-0.378,0-0.695,0.174-0.952,0.521
	c-0.258,0.347-0.387,0.894-0.387,1.639c0,0.687,0.129,1.181,0.387,1.482c0.257,0.3,0.574,0.449,0.952,0.449
	c0.37,0,0.68-0.149,0.931-0.449C96.574,33.146,96.699,32.652,96.699,31.965"/>
<path fill="#008AFF" d="M99.191,32.341c0-0.573,0.074-1.07,0.224-1.491c0.148-0.421,0.343-0.769,0.582-1.045
	c0.239-0.275,0.512-0.479,0.816-0.61c0.305-0.13,0.612-0.195,0.925-0.195h0.076c0.313,0,0.62,0.065,0.926,0.195
	c0.305,0.132,0.576,0.335,0.815,0.61c0.24,0.276,0.435,0.624,0.583,1.045s0.224,0.918,0.224,1.491c0,0.421-0.024,0.849-0.071,1.284
	c-0.047,0.435-0.104,0.854-0.169,1.257c-0.065,0.403-0.132,0.775-0.201,1.116s-0.125,0.631-0.168,0.871h-1.046
	c0.029-0.109,0.078-0.318,0.147-0.626c0.068-0.309,0.14-0.67,0.212-1.083c0.072-0.414,0.137-0.86,0.19-1.339
	c0.055-0.479,0.082-0.943,0.082-1.394c0-0.464-0.046-0.862-0.136-1.192c-0.091-0.329-0.209-0.601-0.354-0.811
	c-0.145-0.21-0.309-0.366-0.489-0.468c-0.182-0.102-0.366-0.152-0.556-0.152c-0.211,0-0.412,0.051-0.604,0.152
	c-0.192,0.102-0.361,0.258-0.506,0.468c-0.146,0.21-0.263,0.481-0.35,0.811c-0.087,0.33-0.13,0.729-0.13,1.192
	c0,0.45,0.027,0.914,0.081,1.394c0.055,0.479,0.116,0.925,0.186,1.339c0.068,0.413,0.138,0.774,0.206,1.083
	c0.069,0.308,0.118,0.517,0.148,0.626h-1.045c-0.044-0.24-0.1-0.53-0.164-0.871c-0.065-0.341-0.13-0.713-0.196-1.116
	c-0.064-0.402-0.121-0.822-0.169-1.257C99.215,33.19,99.191,32.762,99.191,32.341"/>
<rect x="-84.375" y="-75" fill="none" width="300" height="200"/>
</svg>
